<svg width="193" height="72" viewBox="0 0 193 72" fill="none" xmlns="http://www.w3.org/2000/svg">
<g filter="url(#filter0_d_73_27)">
<rect x="8" y="6" width="177" height="56" rx="28" fill="black" fill-opacity="0.01" shape-rendering="crispEdges"/>
<path d="M60 39.0002V33.4522C60 32.9179 59.9995 32.6506 59.9346 32.4019C59.877 32.1816 59.7825 31.9731 59.6546 31.7846C59.5102 31.572 59.3096 31.3957 58.9074 31.0438L54.1074 26.8438C53.3608 26.1905 52.9875 25.8641 52.5674 25.7398C52.1972 25.6303 51.8026 25.6303 51.4324 25.7398C51.0126 25.864 50.6398 26.1901 49.8944 26.8424L45.0928 31.0438C44.6906 31.3957 44.49 31.572 44.3457 31.7846C44.2178 31.9731 44.1225 32.1816 44.065 32.4019C44 32.6506 44 32.9179 44 33.4522V39.0002C44 39.932 44 40.3978 44.1522 40.7654C44.3552 41.2554 44.7443 41.6452 45.2344 41.8482C45.6019 42.0005 46.0679 42.0005 46.9997 42.0005C47.9316 42.0005 48.3981 42.0005 48.7656 41.8482C49.2557 41.6452 49.6447 41.2555 49.8477 40.7654C49.9999 40.3979 50 39.932 50 39.0001V38.0001C50 36.8955 50.8954 36.0001 52 36.0001C53.1046 36.0001 54 36.8955 54 38.0001V39.0001C54 39.932 54 40.3979 54.1522 40.7654C54.3552 41.2555 54.7443 41.6452 55.2344 41.8482C55.6019 42.0005 56.0679 42.0005 56.9997 42.0005C57.9316 42.0005 58.3981 42.0005 58.7656 41.8482C59.2557 41.6452 59.6447 41.2554 59.8477 40.7654C59.9999 40.3978 60 39.932 60 39.0002Z" stroke="#090909" stroke-width="2" stroke-linecap="round" stroke-linejoin="round"/>
<path d="M60 39.0002V33.4522C60 32.9179 59.9995 32.6506 59.9346 32.4019C59.877 32.1816 59.7825 31.9731 59.6546 31.7846C59.5102 31.572 59.3096 31.3957 58.9074 31.0438L54.1074 26.8438C53.3608 26.1905 52.9875 25.8641 52.5674 25.7398C52.1972 25.6303 51.8026 25.6303 51.4324 25.7398C51.0126 25.864 50.6398 26.1901 49.8944 26.8424L45.0928 31.0438C44.6906 31.3957 44.49 31.572 44.3457 31.7846C44.2178 31.9731 44.1225 32.1816 44.065 32.4019C44 32.6506 44 32.9179 44 33.4522V39.0002C44 39.932 44 40.3978 44.1522 40.7654C44.3552 41.2554 44.7443 41.6452 45.2344 41.8482C45.6019 42.0005 46.0679 42.0005 46.9997 42.0005C47.9316 42.0005 48.3981 42.0005 48.7656 41.8482C49.2557 41.6452 49.6447 41.2555 49.8477 40.7654C49.9999 40.3979 50 39.932 50 39.0001V38.0001C50 36.8955 50.8954 36.0001 52 36.0001C53.1046 36.0001 54 36.8955 54 38.0001V39.0001C54 39.932 54 40.3979 54.1522 40.7654C54.3552 41.2555 54.7443 41.6452 55.2344 41.8482C55.6019 42.0005 56.0679 42.0005 56.9997 42.0005C57.9316 42.0005 58.3981 42.0005 58.7656 41.8482C59.2557 41.6452 59.6447 41.2554 59.8477 40.7654C59.9999 40.3978 60 39.932 60 39.0002Z" stroke="url(#paint0_radial_73_27)" stroke-width="2" stroke-linecap="round" stroke-linejoin="round"/>
<path d="M82.6676 26.4545V28.3438H75.7926V41H73.598V26.4545H82.6676ZM84.1112 41L84.104 39.1605H84.4947C84.7977 39.1605 85.051 39.0966 85.2546 38.9688C85.4629 38.8362 85.6334 38.6136 85.766 38.3011C85.8986 37.9886 86.0004 37.5578 86.0714 37.0085C86.1424 36.4545 86.1945 35.7585 86.2276 34.9205L86.4194 30.0909H94.033V41H91.9521V31.9233H88.3867L88.2163 35.6307C88.1737 36.5303 88.0813 37.3163 87.9393 37.9886C87.802 38.661 87.6007 39.2221 87.3356 39.6719C87.0704 40.117 86.7295 40.4508 86.3129 40.6733C85.8962 40.8911 85.3896 41 84.793 41H84.1112ZM100.04 41.2415C99.3485 41.2415 98.7235 41.1136 98.1648 40.858C97.6061 40.5975 97.1634 40.2211 96.8366 39.7287C96.5147 39.2363 96.3537 38.6326 96.3537 37.9176C96.3537 37.3021 96.4721 36.7955 96.7088 36.3977C96.9455 36 97.2652 35.6851 97.6676 35.4531C98.0701 35.2211 98.5199 35.0459 99.017 34.9276C99.5142 34.8092 100.021 34.7192 100.537 34.6577C101.19 34.5819 101.721 34.5204 102.128 34.473C102.535 34.4209 102.831 34.3381 103.016 34.2244C103.2 34.1108 103.293 33.9261 103.293 33.6705V33.6207C103.293 33.0005 103.117 32.5199 102.767 32.179C102.421 31.8381 101.905 31.6676 101.219 31.6676C100.504 31.6676 99.9403 31.8262 99.5284 32.1435C99.1212 32.456 98.8395 32.804 98.6832 33.1875L96.6875 32.733C96.9242 32.0701 97.2699 31.535 97.7244 31.1278C98.1837 30.7159 98.7116 30.4176 99.3082 30.233C99.9048 30.0436 100.532 29.9489 101.19 29.9489C101.626 29.9489 102.088 30.0009 102.575 30.1051C103.068 30.2045 103.527 30.3892 103.953 30.6591C104.384 30.929 104.737 31.3149 105.011 31.8168C105.286 32.3139 105.423 32.9602 105.423 33.7557V41H103.349V39.5085H103.264C103.127 39.7831 102.921 40.053 102.646 40.3182C102.372 40.5833 102.019 40.8035 101.588 40.9787C101.157 41.1539 100.641 41.2415 100.04 41.2415ZM100.501 39.5369C101.089 39.5369 101.59 39.4209 102.007 39.1889C102.429 38.9569 102.748 38.6539 102.966 38.2798C103.188 37.901 103.3 37.4962 103.3 37.0653V35.6591C103.224 35.7348 103.077 35.8059 102.859 35.8722C102.646 35.9337 102.402 35.9882 102.128 36.0355C101.853 36.0781 101.586 36.1184 101.325 36.1562C101.065 36.1894 100.847 36.2178 100.672 36.2415C100.26 36.2936 99.8835 36.3812 99.5426 36.5043C99.2064 36.6274 98.9366 36.8049 98.733 37.0369C98.5341 37.2642 98.4347 37.5672 98.4347 37.946C98.4347 38.4716 98.6288 38.8693 99.017 39.1392C99.4053 39.4044 99.9001 39.5369 100.501 39.5369ZM108.252 41V30.0909H112.776C114.007 30.0909 114.982 30.3537 115.702 30.8793C116.422 31.4001 116.782 32.108 116.782 33.0028C116.782 33.642 116.578 34.1487 116.171 34.5227C115.764 34.8968 115.224 35.1477 114.551 35.2756C115.039 35.3324 115.487 35.4792 115.894 35.7159C116.301 35.9479 116.628 36.2604 116.874 36.6534C117.125 37.0464 117.25 37.5152 117.25 38.0597C117.25 38.6373 117.101 39.1487 116.803 39.5938C116.505 40.0341 116.071 40.3797 115.503 40.6307C114.94 40.8769 114.26 41 113.465 41H108.252ZM110.248 39.2244H113.465C113.99 39.2244 114.402 39.099 114.701 38.848C114.999 38.5971 115.148 38.2562 115.148 37.8253C115.148 37.3187 114.999 36.9209 114.701 36.6321C114.402 36.3385 113.99 36.1918 113.465 36.1918H110.248V39.2244ZM110.248 34.6364H112.797C113.195 34.6364 113.536 34.5795 113.82 34.4659C114.109 34.3523 114.329 34.1913 114.48 33.983C114.637 33.7699 114.715 33.5189 114.715 33.2301C114.715 32.8087 114.542 32.4796 114.196 32.2429C113.851 32.0062 113.377 31.8878 112.776 31.8878H110.248V34.6364ZM126.973 34.6293V36.4688H121.064V34.6293H126.973ZM121.661 30.0909V41H119.58V30.0909H121.661ZM128.458 30.0909V41H126.384V30.0909H128.458ZM134.473 41.2415C133.782 41.2415 133.157 41.1136 132.598 40.858C132.04 40.5975 131.597 40.2211 131.27 39.7287C130.948 39.2363 130.787 38.6326 130.787 37.9176C130.787 37.3021 130.906 36.7955 131.142 36.3977C131.379 36 131.699 35.6851 132.101 35.4531C132.504 35.2211 132.953 35.0459 133.451 34.9276C133.948 34.8092 134.454 34.7192 134.971 34.6577C135.624 34.5819 136.154 34.5204 136.561 34.473C136.969 34.4209 137.265 34.3381 137.449 34.2244C137.634 34.1108 137.726 33.9261 137.726 33.6705V33.6207C137.726 33.0005 137.551 32.5199 137.201 32.179C136.855 31.8381 136.339 31.6676 135.652 31.6676C134.937 31.6676 134.374 31.8262 133.962 32.1435C133.555 32.456 133.273 32.804 133.117 33.1875L131.121 32.733C131.358 32.0701 131.703 31.535 132.158 31.1278C132.617 30.7159 133.145 30.4176 133.742 30.233C134.338 30.0436 134.966 29.9489 135.624 29.9489C136.06 29.9489 136.521 30.0009 137.009 30.1051C137.501 30.2045 137.961 30.3892 138.387 30.6591C138.818 30.929 139.17 31.3149 139.445 31.8168C139.72 32.3139 139.857 32.9602 139.857 33.7557V41H137.783V39.5085H137.698C137.56 39.7831 137.355 40.053 137.08 40.3182C136.805 40.5833 136.453 40.8035 136.022 40.9787C135.591 41.1539 135.075 41.2415 134.473 41.2415ZM134.935 39.5369C135.522 39.5369 136.024 39.4209 136.441 39.1889C136.862 38.9569 137.182 38.6539 137.4 38.2798C137.622 37.901 137.733 37.4962 137.733 37.0653V35.6591C137.658 35.7348 137.511 35.8059 137.293 35.8722C137.08 35.9337 136.836 35.9882 136.561 36.0355C136.287 36.0781 136.019 36.1184 135.759 36.1562C135.498 36.1894 135.281 36.2178 135.105 36.2415C134.694 36.2936 134.317 36.3812 133.976 36.5043C133.64 36.6274 133.37 36.8049 133.167 37.0369C132.968 37.2642 132.868 37.5672 132.868 37.946C132.868 38.4716 133.062 38.8693 133.451 39.1392C133.839 39.4044 134.334 39.5369 134.935 39.5369ZM149.191 41V31.902H146.577C145.957 31.902 145.474 32.0464 145.129 32.3352C144.783 32.6241 144.61 33.0028 144.61 33.4716C144.61 33.9356 144.769 34.3097 145.086 34.5938C145.408 34.8731 145.858 35.0128 146.435 35.0128H149.809V36.7315H146.435C145.63 36.7315 144.934 36.599 144.347 36.3338C143.765 36.0639 143.315 35.6828 142.998 35.1903C142.685 34.6979 142.529 34.1155 142.529 33.4432C142.529 32.7566 142.69 32.1648 143.012 31.6676C143.339 31.1657 143.805 30.7775 144.411 30.5028C145.022 30.2282 145.744 30.0909 146.577 30.0909H151.187V41H149.191ZM142.032 41L145.107 35.4886H147.281L144.205 41H142.032Z" fill="black"/>
<path d="M82.6676 26.4545V28.3438H75.7926V41H73.598V26.4545H82.6676ZM84.1112 41L84.104 39.1605H84.4947C84.7977 39.1605 85.051 39.0966 85.2546 38.9688C85.4629 38.8362 85.6334 38.6136 85.766 38.3011C85.8986 37.9886 86.0004 37.5578 86.0714 37.0085C86.1424 36.4545 86.1945 35.7585 86.2276 34.9205L86.4194 30.0909H94.033V41H91.9521V31.9233H88.3867L88.2163 35.6307C88.1737 36.5303 88.0813 37.3163 87.9393 37.9886C87.802 38.661 87.6007 39.2221 87.3356 39.6719C87.0704 40.117 86.7295 40.4508 86.3129 40.6733C85.8962 40.8911 85.3896 41 84.793 41H84.1112ZM100.04 41.2415C99.3485 41.2415 98.7235 41.1136 98.1648 40.858C97.6061 40.5975 97.1634 40.2211 96.8366 39.7287C96.5147 39.2363 96.3537 38.6326 96.3537 37.9176C96.3537 37.3021 96.4721 36.7955 96.7088 36.3977C96.9455 36 97.2652 35.6851 97.6676 35.4531C98.0701 35.2211 98.5199 35.0459 99.017 34.9276C99.5142 34.8092 100.021 34.7192 100.537 34.6577C101.19 34.5819 101.721 34.5204 102.128 34.473C102.535 34.4209 102.831 34.3381 103.016 34.2244C103.2 34.1108 103.293 33.9261 103.293 33.6705V33.6207C103.293 33.0005 103.117 32.5199 102.767 32.179C102.421 31.8381 101.905 31.6676 101.219 31.6676C100.504 31.6676 99.9403 31.8262 99.5284 32.1435C99.1212 32.456 98.8395 32.804 98.6832 33.1875L96.6875 32.733C96.9242 32.0701 97.2699 31.535 97.7244 31.1278C98.1837 30.7159 98.7116 30.4176 99.3082 30.233C99.9048 30.0436 100.532 29.9489 101.19 29.9489C101.626 29.9489 102.088 30.0009 102.575 30.1051C103.068 30.2045 103.527 30.3892 103.953 30.6591C104.384 30.929 104.737 31.3149 105.011 31.8168C105.286 32.3139 105.423 32.9602 105.423 33.7557V41H103.349V39.5085H103.264C103.127 39.7831 102.921 40.053 102.646 40.3182C102.372 40.5833 102.019 40.8035 101.588 40.9787C101.157 41.1539 100.641 41.2415 100.04 41.2415ZM100.501 39.5369C101.089 39.5369 101.59 39.4209 102.007 39.1889C102.429 38.9569 102.748 38.6539 102.966 38.2798C103.188 37.901 103.3 37.4962 103.3 37.0653V35.6591C103.224 35.7348 103.077 35.8059 102.859 35.8722C102.646 35.9337 102.402 35.9882 102.128 36.0355C101.853 36.0781 101.586 36.1184 101.325 36.1562C101.065 36.1894 100.847 36.2178 100.672 36.2415C100.26 36.2936 99.8835 36.3812 99.5426 36.5043C99.2064 36.6274 98.9366 36.8049 98.733 37.0369C98.5341 37.2642 98.4347 37.5672 98.4347 37.946C98.4347 38.4716 98.6288 38.8693 99.017 39.1392C99.4053 39.4044 99.9001 39.5369 100.501 39.5369ZM108.252 41V30.0909H112.776C114.007 30.0909 114.982 30.3537 115.702 30.8793C116.422 31.4001 116.782 32.108 116.782 33.0028C116.782 33.642 116.578 34.1487 116.171 34.5227C115.764 34.8968 115.224 35.1477 114.551 35.2756C115.039 35.3324 115.487 35.4792 115.894 35.7159C116.301 35.9479 116.628 36.2604 116.874 36.6534C117.125 37.0464 117.25 37.5152 117.25 38.0597C117.25 38.6373 117.101 39.1487 116.803 39.5938C116.505 40.0341 116.071 40.3797 115.503 40.6307C114.94 40.8769 114.26 41 113.465 41H108.252ZM110.248 39.2244H113.465C113.99 39.2244 114.402 39.099 114.701 38.848C114.999 38.5971 115.148 38.2562 115.148 37.8253C115.148 37.3187 114.999 36.9209 114.701 36.6321C114.402 36.3385 113.99 36.1918 113.465 36.1918H110.248V39.2244ZM110.248 34.6364H112.797C113.195 34.6364 113.536 34.5795 113.82 34.4659C114.109 34.3523 114.329 34.1913 114.48 33.983C114.637 33.7699 114.715 33.5189 114.715 33.2301C114.715 32.8087 114.542 32.4796 114.196 32.2429C113.851 32.0062 113.377 31.8878 112.776 31.8878H110.248V34.6364ZM126.973 34.6293V36.4688H121.064V34.6293H126.973ZM121.661 30.0909V41H119.58V30.0909H121.661ZM128.458 30.0909V41H126.384V30.0909H128.458ZM134.473 41.2415C133.782 41.2415 133.157 41.1136 132.598 40.858C132.04 40.5975 131.597 40.2211 131.27 39.7287C130.948 39.2363 130.787 38.6326 130.787 37.9176C130.787 37.3021 130.906 36.7955 131.142 36.3977C131.379 36 131.699 35.6851 132.101 35.4531C132.504 35.2211 132.953 35.0459 133.451 34.9276C133.948 34.8092 134.454 34.7192 134.971 34.6577C135.624 34.5819 136.154 34.5204 136.561 34.473C136.969 34.4209 137.265 34.3381 137.449 34.2244C137.634 34.1108 137.726 33.9261 137.726 33.6705V33.6207C137.726 33.0005 137.551 32.5199 137.201 32.179C136.855 31.8381 136.339 31.6676 135.652 31.6676C134.937 31.6676 134.374 31.8262 133.962 32.1435C133.555 32.456 133.273 32.804 133.117 33.1875L131.121 32.733C131.358 32.0701 131.703 31.535 132.158 31.1278C132.617 30.7159 133.145 30.4176 133.742 30.233C134.338 30.0436 134.966 29.9489 135.624 29.9489C136.06 29.9489 136.521 30.0009 137.009 30.1051C137.501 30.2045 137.961 30.3892 138.387 30.6591C138.818 30.929 139.17 31.3149 139.445 31.8168C139.72 32.3139 139.857 32.9602 139.857 33.7557V41H137.783V39.5085H137.698C137.56 39.7831 137.355 40.053 137.08 40.3182C136.805 40.5833 136.453 40.8035 136.022 40.9787C135.591 41.1539 135.075 41.2415 134.473 41.2415ZM134.935 39.5369C135.522 39.5369 136.024 39.4209 136.441 39.1889C136.862 38.9569 137.182 38.6539 137.4 38.2798C137.622 37.901 137.733 37.4962 137.733 37.0653V35.6591C137.658 35.7348 137.511 35.8059 137.293 35.8722C137.08 35.9337 136.836 35.9882 136.561 36.0355C136.287 36.0781 136.019 36.1184 135.759 36.1562C135.498 36.1894 135.281 36.2178 135.105 36.2415C134.694 36.2936 134.317 36.3812 133.976 36.5043C133.64 36.6274 133.37 36.8049 133.167 37.0369C132.968 37.2642 132.868 37.5672 132.868 37.946C132.868 38.4716 133.062 38.8693 133.451 39.1392C133.839 39.4044 134.334 39.5369 134.935 39.5369ZM149.191 41V31.902H146.577C145.957 31.902 145.474 32.0464 145.129 32.3352C144.783 32.6241 144.61 33.0028 144.61 33.4716C144.61 33.9356 144.769 34.3097 145.086 34.5938C145.408 34.8731 145.858 35.0128 146.435 35.0128H149.809V36.7315H146.435C145.63 36.7315 144.934 36.599 144.347 36.3338C143.765 36.0639 143.315 35.6828 142.998 35.1903C142.685 34.6979 142.529 34.1155 142.529 33.4432C142.529 32.7566 142.69 32.1648 143.012 31.6676C143.339 31.1657 143.805 30.7775 144.411 30.5028C145.022 30.2282 145.744 30.0909 146.577 30.0909H151.187V41H149.191ZM142.032 41L145.107 35.4886H147.281L144.205 41H142.032Z" fill="url(#paint1_radial_73_27)"/>
</g>
<defs>
<filter id="filter0_d_73_27" x="0" y="0" width="193" height="72" filterUnits="userSpaceOnUse" color-interpolation-filters="sRGB">
<feFlood flood-opacity="0" result="BackgroundImageFix"/>
<feColorMatrix in="SourceAlpha" type="matrix" values="0 0 0 0 0 0 0 0 0 0 0 0 0 0 0 0 0 0 127 0" result="hardAlpha"/>
<feOffset dy="2"/>
<feGaussianBlur stdDeviation="4"/>
<feComposite in2="hardAlpha" operator="out"/>
<feColorMatrix type="matrix" values="0 0 0 0 0 0 0 0 0 0 0 0 0 0 0 0 0 0 0.25 0"/>
<feBlend mode="normal" in2="BackgroundImageFix" result="effect1_dropShadow_73_27"/>
<feBlend mode="normal" in="BackgroundImageFix" in2="effect1_dropShadow_73_27" result="BackgroundImageFix"/>
<feBlend mode="normal" in="SourceGraphic" in2="BackgroundImageFix" result="shape"/>
</filter>
<radialGradient id="paint0_radial_73_27" cx="0" cy="0" r="1" gradientUnits="userSpaceOnUse" gradientTransform="translate(29.2952 27.5871) rotate(22.4279) scale(33.7088 28.8091)">
<stop offset="0.44" stop-color="#00C8FF"/>
<stop offset="1" stop-color="#004DFF"/>
</radialGradient>
<radialGradient id="paint1_radial_73_27" cx="0" cy="0" r="1" gradientUnits="userSpaceOnUse" gradientTransform="translate(-2.44286 24.8333) rotate(6.82745) scale(158.869 45.4447)">
<stop offset="0.44" stop-color="#00C8FF"/>
<stop offset="1" stop-color="#004DFF"/>
</radialGradient>
</defs>
</svg>
